<svg width="88" height="88" viewBox="0 0 88 88" fill="none" xmlns="http://www.w3.org/2000/svg">
<rect width="88" height="88" rx="20" fill="#9FAFA1"/>
<path d="M47.0648 30.673C47.0648 30.0838 47.1939 29.5187 47.4238 29.102C47.6537 28.6853 47.9655 28.4513 48.2906 28.4513H61.7742C62.0993 28.4513 62.4111 28.6853 62.641 29.102C62.8709 29.5187 63 30.0838 63 30.673C63 31.2623 62.8709 31.8274 62.641 32.2441C62.4111 32.6608 62.0993 32.8948 61.7742 32.8948H48.2906C47.9655 32.8948 47.6537 32.6608 47.4238 32.2441C47.1939 31.8274 47.0648 31.2623 47.0648 30.673ZM61.7742 41.782H48.2906C47.9655 41.782 47.6537 42.0161 47.4238 42.4328C47.1939 42.8494 47.0648 43.4146 47.0648 44.0038C47.0648 44.5931 47.1939 45.1582 47.4238 45.5749C47.6537 45.9915 47.9655 46.2256 48.2906 46.2256H61.7742C62.0993 46.2256 62.4111 45.9915 62.641 45.5749C62.8709 45.1582 63 44.5931 63 44.0038C63 43.4146 62.8709 42.8494 62.641 42.4328C62.4111 42.0161 62.0993 41.782 61.7742 41.782ZM61.7742 55.1128H51.9679C51.6428 55.1128 51.331 55.3469 51.1012 55.7636C50.8713 56.1802 50.7421 56.7454 50.7421 57.3346C50.7421 57.9239 50.8713 58.489 51.1012 58.9057C51.331 59.3223 51.6428 59.5564 51.9679 59.5564H61.7742C62.0993 59.5564 62.4111 59.3223 62.641 58.9057C62.8709 58.489 63 57.9239 63 57.3346C63 56.7454 62.8709 56.1802 62.641 55.7636C62.4111 55.3469 62.0993 55.1128 61.7742 55.1128ZM40.5206 47.892C41.7372 46.1936 42.6299 43.8476 43.0736 41.183C43.5174 38.5185 43.4899 35.669 42.9949 33.0342C42.5 30.3995 41.5625 28.1115 40.3139 26.4914C39.0653 24.8712 37.5683 24 36.0327 24C34.4971 24 33.0001 24.8712 31.7515 26.4914C30.5029 28.1115 29.5654 30.3995 29.0705 33.0342C28.5755 35.669 28.548 38.5185 28.9918 41.183C29.4355 43.8476 30.3282 46.1936 31.5448 47.892C28.3853 50.3165 25.8954 55.1961 25.0389 61.2228C24.9921 61.5512 24.9875 61.8946 25.0252 62.2268C25.063 62.559 25.1423 62.8711 25.2569 63.1392C25.3715 63.4073 25.5185 63.6243 25.6866 63.7735C25.8546 63.9227 26.0393 64.0002 26.2264 64H45.839C46.0261 64.0002 46.2108 63.9227 46.3788 63.7735C46.5469 63.6243 46.6939 63.4073 46.8085 63.1392C46.9231 62.8711 47.0024 62.559 47.0401 62.2268C47.0779 61.8946 47.0733 61.5512 47.0265 61.2228C46.17 55.1934 43.6801 50.3137 40.5206 47.892Z" fill="white"/>
</svg>
