<svg width="88" height="88" viewBox="0 0 88 88" fill="none" xmlns="http://www.w3.org/2000/svg">
<g clip-path="url(#clip0_3_63)">
<path d="M52.2499 27.5C52.2499 26.7706 52.5397 26.0712 53.0554 25.5554C53.5711 25.0397 54.2706 24.75 54.9999 24.75H85.2499C85.9793 24.75 86.6787 25.0397 87.1945 25.5554C87.7102 26.0712 87.9999 26.7706 87.9999 27.5C87.9999 28.2293 87.7102 28.9288 87.1945 29.4445C86.6787 29.9603 85.9793 30.25 85.2499 30.25H54.9999C54.2706 30.25 53.5711 29.9603 53.0554 29.4445C52.5397 28.9288 52.2499 28.2293 52.2499 27.5ZM85.2499 41.25H54.9999C54.2706 41.25 53.5711 41.5397 53.0554 42.0554C52.5397 42.5712 52.2499 43.2706 52.2499 44C52.2499 44.7293 52.5397 45.4288 53.0554 45.9445C53.5711 46.4603 54.2706 46.75 54.9999 46.75H85.2499C85.9793 46.75 86.6787 46.4603 87.1945 45.9445C87.7102 45.4288 87.9999 44.7293 87.9999 44C87.9999 43.2706 87.7102 42.5712 87.1945 42.0554C86.6787 41.5397 85.9793 41.25 85.2499 41.25ZM85.2499 57.75H63.2499C62.5206 57.75 61.8211 58.0397 61.3054 58.5554C60.7897 59.0712 60.4999 59.7706 60.4999 60.5C60.4999 61.2293 60.7897 61.9288 61.3054 62.4445C61.8211 62.9603 62.5206 63.25 63.2499 63.25H85.2499C85.9793 63.25 86.6787 62.9603 87.1945 62.4445C87.7102 61.9288 87.9999 61.2293 87.9999 60.5C87.9999 59.7706 87.7102 59.0712 87.1945 58.5554C86.6787 58.0397 85.9793 57.75 85.2499 57.75ZM37.5684 48.8125C40.2976 46.7103 42.3005 43.8066 43.296 40.5086C44.2915 37.2106 44.2298 33.6837 43.1194 30.4225C42.0091 27.1613 39.9059 24.3295 37.1047 22.3242C34.3035 20.3188 30.9449 19.2405 27.4999 19.2405C24.0549 19.2405 20.6963 20.3188 17.8952 22.3242C15.094 24.3295 12.9908 27.1613 11.8804 30.4225C10.7701 33.6837 10.7084 37.2106 11.7039 40.5086C12.6994 43.8066 14.7022 46.7103 17.4315 48.8125C10.3434 51.8134 4.75742 57.8531 2.83586 65.3125C2.73091 65.719 2.72041 66.1441 2.80518 66.5553C2.88995 66.9664 3.06773 67.3527 3.32489 67.6846C3.58206 68.0164 3.91179 68.2849 4.2888 68.4696C4.66581 68.6543 5.08011 68.7502 5.49992 68.75H49.4999C49.9197 68.7502 50.334 68.6543 50.711 68.4696C51.0881 68.2849 51.4178 68.0164 51.6749 67.6846C51.9321 67.3527 52.1099 66.9664 52.1947 66.5553C52.2794 66.1441 52.2689 65.719 52.164 65.3125C50.2424 57.8497 44.6565 51.81 37.5684 48.8125Z" fill="white"/>
</g>
<defs>
<clipPath id="clip0_3_63">
<rect width="88" height="88" fill="white"/>
</clipPath>
</defs>
</svg>
