<svg width="88" height="88" viewBox="0 0 88 88" fill="none" xmlns="http://www.w3.org/2000/svg">
<path d="M67.1001 20.9367C66.7609 20.5967 66.3579 20.3271 65.9144 20.1431C65.4708 19.9591 64.9953 19.8644 64.5151 19.8644C64.0349 19.8644 63.5594 19.9591 63.1158 20.1431C62.6722 20.3271 62.2693 20.5967 61.9301 20.9367L44.0001 38.83L26.0701 20.9C25.7306 20.5605 25.3276 20.2912 24.8841 20.1075C24.4405 19.9238 23.9652 19.8293 23.4851 19.8293C23.005 19.8293 22.5296 19.9238 22.0861 20.1075C21.6426 20.2912 21.2396 20.5605 20.9001 20.9C20.5606 21.2395 20.2913 21.6425 20.1076 22.086C19.9239 22.5295 19.8293 23.0049 19.8293 23.485C19.8293 23.9651 19.9239 24.4405 20.1076 24.884C20.2913 25.3275 20.5606 25.7305 20.9001 26.07L38.8301 44L20.9001 61.93C20.5606 62.2695 20.2913 62.6725 20.1076 63.116C19.9239 63.5595 19.8293 64.0349 19.8293 64.515C19.8293 64.9951 19.9239 65.4705 20.1076 65.914C20.2913 66.3575 20.5606 66.7605 20.9001 67.1C21.2396 67.4395 21.6426 67.7087 22.0861 67.8925C22.5296 68.0762 23.005 68.1707 23.4851 68.1707C23.9652 68.1707 24.4405 68.0762 24.8841 67.8925C25.3276 67.7087 25.7306 67.4395 26.0701 67.1L44.0001 49.17L61.9301 67.1C62.2696 67.4395 62.6726 67.7087 63.1161 67.8925C63.5596 68.0762 64.035 68.1707 64.5151 68.1707C64.9952 68.1707 65.4705 68.0762 65.9141 67.8925C66.3576 67.7087 66.7606 67.4395 67.1001 67.1C67.4396 66.7605 67.7088 66.3575 67.8926 65.914C68.0763 65.4705 68.1708 64.9951 68.1708 64.515C68.1708 64.0349 68.0763 63.5595 67.8926 63.116C67.7088 62.6725 67.4396 62.2695 67.1001 61.93L49.1701 44L67.1001 26.07C68.4934 24.6767 68.4934 22.33 67.1001 20.9367Z" fill="#0CF1F1"/>
</svg>
