<svg width="88" height="88" viewBox="0 0 88 88" fill="none" xmlns="http://www.w3.org/2000/svg">
<path d="M78.3097 22.9488L78.2822 22.9797L55 47.8397V66.9144C55.0014 67.8216 54.7783 68.715 54.3507 69.5151C53.923 70.3152 53.3041 70.9971 52.5491 71.5L41.5491 78.8356C40.7201 79.3878 39.7568 79.7045 38.7619 79.7519C37.7671 79.7994 36.778 79.5757 35.9003 79.1049C35.0226 78.6341 34.2892 77.9338 33.7784 77.0788C33.2676 76.2237 32.9986 75.246 33 74.25V47.8397L9.71784 22.9797L9.69034 22.9488C8.97447 22.1609 8.5026 21.1823 8.33198 20.1316C8.16136 19.0808 8.29931 18.0032 8.72911 17.0293C9.1589 16.0555 9.86207 15.2272 10.7533 14.6451C11.6445 14.0631 12.6855 13.7521 13.75 13.75H74.25C75.3154 13.7501 76.3578 14.0596 77.2506 14.6409C78.1434 15.2223 78.8481 16.0504 79.2792 17.0246C79.7102 17.9989 79.8491 19.0774 79.6788 20.129C79.5085 21.1807 79.0365 22.1603 78.32 22.9488H78.3097Z" fill="#FFFDFD"/>
</svg>
