<svg width="88" height="88" viewBox="0 0 88 88" fill="none" xmlns="http://www.w3.org/2000/svg">
<path d="M78.2822 22.9797L55 47.8397V66.9144C55.0014 67.8216 54.7783 68.715 54.3507 69.5151C53.923 70.3152 53.3041 70.9971 52.5491 71.5L41.5491 78.8356C40.7201 79.3878 39.7568 79.7045 38.7619 79.7519C37.7671 79.7994 36.778 79.5757 35.9003 79.1049C35.0226 78.6341 34.2892 77.9338 33.7784 77.0788C33.2676 76.2237 32.9986 75.246 33 74.25V47.8397L9.71784 22.9797L9.69034 22.9488C8.97447 22.1609 8.5026 21.1823 8.33198 20.1316C8.16136 19.0808 8.29931 18.0032 8.72911 17.0293C9.1589 16.0555 9.86207 15.2272 10.7533 14.6451C11.6445 14.0631 12.6855 13.7521 13.75 13.75H74.25C75.3154 13.7501 76.3578 14.0596 77.2506 14.6409C78.1434 15.2223 78.8481 16.0504 79.2792 17.0246C79.7102 17.9989 79.8491 19.0774 79.6788 20.129C79.5085 21.1807 79.0365 22.1603 78.32 22.9488L78.2822 22.9797ZM78.1378 66L84.4457 59.6956C84.9617 59.1796 85.2516 58.4798 85.2516 57.75C85.2516 57.0202 84.9617 56.3204 84.4457 55.8044C83.9296 55.2884 83.2298 54.9985 82.5 54.9985C81.7703 54.9985 81.0704 55.2884 80.5544 55.8044L74.25 62.1122L67.9457 55.8044C67.4296 55.2884 66.7298 54.9985 66 54.9985C65.2703 54.9985 64.5704 55.2884 64.0544 55.8044C63.5384 56.3204 63.2485 57.0202 63.2485 57.75C63.2485 58.4798 63.5384 59.1796 64.0544 59.6956L70.3622 66L64.0544 72.3044C63.5384 72.8204 63.2485 73.5202 63.2485 74.25C63.2485 74.9798 63.5384 75.6796 64.0544 76.1956C64.5704 76.7116 65.2703 77.0015 66 77.0015C66.7298 77.0015 67.4296 76.7116 67.9457 76.1956L74.25 69.8878L80.5544 76.1956C81.0704 76.7116 81.7703 77.0015 82.5 77.0015C83.2298 77.0015 83.9296 76.7116 84.4457 76.1956C84.9617 75.6796 85.2516 74.9798 85.2516 74.25C85.2516 73.5202 84.9617 72.8204 84.4457 72.3044L78.1378 66Z" fill="#0CF1F1"/>
</svg>
