<svg width="88" height="88" viewBox="0 0 88 88" fill="none" xmlns="http://www.w3.org/2000/svg">
<path d="M62.4519 26.4599C62.0154 26.4599 61.6 26.1659 61.6 25.7365V14.8597C61.6 14.4303 61.3642 14.08 60.9259 14.08H27.0723C26.6341 14.08 26.4 14.4303 26.4 14.8597V25.7365C26.4 26.1659 25.9266 26.4 25.4866 26.4H2.55025C2.11729 26.4 1.76001 26.8699 1.76001 27.2941V39.3853C1.76001 39.8112 2.11729 40.48 2.55025 40.48H39.4856C39.9239 40.48 40.48 39.8112 40.48 39.3853V36.8069C40.48 36.3775 40.6419 35.2 41.0784 35.2H46.9234C47.3599 35.2 47.52 36.3775 47.52 36.8069V39.3853C47.52 39.8112 48.0762 40.48 48.5109 40.48H85.4445C85.8845 40.48 86.24 39.8112 86.24 39.3853V27.2941C86.24 26.8682 85.8845 26.4 85.4463 26.4H62.5117L62.4519 26.4599ZM31.8437 26.4C31.4072 26.4 31.68 26.1659 31.68 25.7383V19.5554C31.68 19.1242 31.4072 19.36 31.8437 19.36H56.1563C56.5928 19.36 56.32 19.1242 56.32 19.5554V25.7383C56.32 26.1659 56.5928 26.4 56.1563 26.4H31.8437ZM47.6168 52.2931C47.6168 52.7191 47.3599 52.8 46.9234 52.8H41.0784C40.6419 52.8 40.48 52.9883 40.48 52.5624V43.8715C40.48 43.4456 39.9239 42.24 39.4874 42.24H2.55025C2.11729 42.24 1.76001 43.4456 1.76001 43.8715V69.6186C1.76278 69.8265 1.84721 70.025 1.99506 70.1712C2.1429 70.3174 2.34232 70.3996 2.55025 70.4H85.4463C85.6546 70.401 85.8549 70.3196 86.0036 70.1735C86.1523 70.0275 86.2372 69.8287 86.24 69.6203V43.8715C86.24 43.4456 85.8845 42.24 85.4463 42.24H48.5109C48.0762 42.24 47.52 43.4456 47.52 43.8715V52.5624L47.6168 52.2931Z" fill="white"/>
</svg>
