<svg width="88" height="88" viewBox="0 0 88 88" fill="none" xmlns="http://www.w3.org/2000/svg">
<rect width="88" height="88" rx="20" fill="#9FAFA1"/>
<path d="M52.2998 32.7925C52.1035 32.7925 51.9167 32.5837 51.9167 32.2787V24.5537C51.9167 24.2487 51.8106 24 51.6135 24H36.3858C36.1886 24 36.0833 24.2487 36.0833 24.5537V32.2787C36.0833 32.5837 35.8704 32.75 35.6725 32.75H25.3555C25.1607 32.75 25 33.0837 25 33.385V41.9725C25 42.275 25.1607 42.75 25.3555 42.75H41.9694C42.1665 42.75 42.4167 42.275 42.4167 41.9725V40.1412C42.4167 39.8362 42.4895 39 42.6858 39H45.315C45.5113 39 45.5833 39.8362 45.5833 40.1412V41.9725C45.5833 42.275 45.8335 42.75 46.029 42.75H62.6422C62.8401 42.75 63 42.275 63 41.9725V33.385C63 33.0825 62.8401 32.75 62.643 32.75H52.3268L52.2998 32.7925ZM38.532 32.75C38.3356 32.75 38.4583 32.5837 38.4583 32.28V27.8887C38.4583 27.5825 38.3356 27.75 38.532 27.75H49.468C49.6644 27.75 49.5417 27.5825 49.5417 27.8887V32.28C49.5417 32.5837 49.6644 32.75 49.468 32.75H38.532ZM45.6269 51.14C45.6269 51.4425 45.5113 51.5 45.315 51.5H42.6858C42.4895 51.5 42.4167 51.6337 42.4167 51.3312V45.1587C42.4167 44.8562 42.1665 44 41.9702 44H25.3555C25.1607 44 25 44.8562 25 45.1587V63.445C25.0012 63.5927 25.0392 63.7336 25.1057 63.8375C25.1722 63.9413 25.2619 63.9997 25.3555 64H62.643C62.7367 64.0007 62.8268 63.9429 62.8937 63.8391C62.9605 63.7354 62.9987 63.5942 63 63.4462V45.1587C63 44.8562 62.8401 44 62.643 44H46.029C45.8335 44 45.5833 44.8562 45.5833 45.1587V51.3312L45.6269 51.14Z" fill="white"/>
</svg>
