<svg width="88" height="88" viewBox="0 0 88 88" fill="none" xmlns="http://www.w3.org/2000/svg">
<path d="M70.1771 42.8627V70.1325C70.1771 70.7352 69.9424 71.3133 69.5246 71.7394C69.1068 72.1656 68.5401 72.405 67.9492 72.405H52.3543C51.7634 72.405 51.1968 72.1656 50.779 71.7394C50.3612 71.3133 50.1265 70.7352 50.1265 70.1325V55.3614C50.1265 55.06 50.0091 54.771 49.8002 54.5579C49.5913 54.3448 49.308 54.2251 49.0125 54.2251H37.8733C37.5779 54.2251 37.2945 54.3448 37.0856 54.5579C36.8767 54.771 36.7594 55.06 36.7594 55.3614V70.1325C36.7594 70.7352 36.5247 71.3133 36.1069 71.7394C35.689 72.1656 35.1224 72.405 34.5315 72.405H18.9366C18.3457 72.405 17.7791 72.1656 17.3613 71.7394C16.9435 71.3133 16.7087 70.7352 16.7087 70.1325V42.8627C16.7093 41.6575 17.1791 40.5019 18.0148 39.6499L40.2933 16.9251C41.1288 16.0733 42.2617 15.5949 43.4429 15.5949C44.6241 15.5949 45.757 16.0733 46.5925 16.9251L68.871 39.6499C69.7067 40.5019 70.1765 41.6575 70.1771 42.8627Z" fill="#FEFEFE"/>
</svg>
