<svg width="88" height="88" viewBox="0 0 88 88" fill="none" xmlns="http://www.w3.org/2000/svg">
<rect width="88" height="88" rx="20" fill="#9FAFA1"/>
<path d="M63 43.1992V62.3999C63 62.8243 62.8332 63.2313 62.5363 63.5314C62.2393 63.8314 61.8366 64 61.4167 64H50.3333C49.9134 64 49.5107 63.8314 49.2137 63.5314C48.9168 63.2313 48.75 62.8243 48.75 62.3999V51.9996C48.75 51.7874 48.6666 51.5839 48.5181 51.4338C48.3697 51.2838 48.1683 51.1995 47.9583 51.1995H40.0417C39.8317 51.1995 39.6303 51.2838 39.4819 51.4338C39.3334 51.5839 39.25 51.7874 39.25 51.9996V62.3999C39.25 62.8243 39.0832 63.2313 38.7863 63.5314C38.4893 63.8314 38.0866 64 37.6667 64H26.5833C26.1634 64 25.7607 63.8314 25.4637 63.5314C25.1668 63.2313 25 62.8243 25 62.3999V43.1992C25.0004 42.3507 25.3343 41.537 25.9282 40.9371L41.7616 24.9366C42.3554 24.3369 43.1605 24 44 24C44.8395 24 45.6446 24.3369 46.2384 24.9366L62.0718 40.9371C62.6657 41.537 62.9996 42.3507 63 43.1992Z" fill="#FEFEFE"/>
</svg>
