<svg width="88" height="88" viewBox="0 0 88 88" fill="none" xmlns="http://www.w3.org/2000/svg">
<rect width="88" height="88" rx="20" fill="#9FAFA1"/>
<path d="M63 62.2609C63 62.7221 62.846 63.1645 62.5719 63.4906C62.2978 63.8168 61.9261 64 61.5385 64H26.4615C26.0739 64 25.7022 63.8168 25.4281 63.4906C25.154 63.1645 25 62.7221 25 62.2609C25 61.7996 25.154 61.3573 25.4281 61.0311C25.7022 60.705 26.0739 60.5217 26.4615 60.5217H27.9231V46.6087C27.9231 46.1474 28.0771 45.7051 28.3512 45.3789C28.6252 45.0528 28.997 44.8696 29.3846 44.8696H33.7692C34.1569 44.8696 34.5286 45.0528 34.8027 45.3789C35.0768 45.7051 35.2308 46.1474 35.2308 46.6087V60.5217H38.1538V36.1739C38.1538 35.7127 38.3078 35.2703 38.5819 34.9442C38.856 34.618 39.2278 34.4348 39.6154 34.4348H45.4615C45.8492 34.4348 46.2209 34.618 46.495 34.9442C46.7691 35.2703 46.9231 35.7127 46.9231 36.1739V60.5217H49.8462V25.7391C49.8462 25.2779 50.0001 24.8355 50.2742 24.5094C50.5483 24.1832 50.9201 24 51.3077 24H58.6154C59.003 24 59.3748 24.1832 59.6488 24.5094C59.9229 24.8355 60.0769 25.2779 60.0769 25.7391V60.5217H61.5385C61.9261 60.5217 62.2978 60.705 62.5719 61.0311C62.846 61.3573 63 61.7996 63 62.2609Z" fill="white"/>
</svg>
