<svg width="88" height="88" viewBox="0 0 88 88" fill="none" xmlns="http://www.w3.org/2000/svg">
<path d="M79.75 71.5C79.75 72.2293 79.4603 72.9288 78.9445 73.4445C78.4288 73.9603 77.7293 74.25 77 74.25H11C10.2707 74.25 9.57118 73.9603 9.05546 73.4445C8.53973 72.9288 8.25 72.2293 8.25 71.5C8.25 70.7707 8.53973 70.0712 9.05546 69.5555C9.57118 69.0397 10.2707 68.75 11 68.75H13.75V46.75C13.75 46.0207 14.0397 45.3212 14.5555 44.8055C15.0712 44.2897 15.7707 44 16.5 44H24.75C25.4793 44 26.1788 44.2897 26.6945 44.8055C27.2103 45.3212 27.5 46.0207 27.5 46.75V68.75H33V30.25C33 29.5207 33.2897 28.8212 33.8055 28.3055C34.3212 27.7897 35.0207 27.5 35.75 27.5H46.75C47.4793 27.5 48.1788 27.7897 48.6945 28.3055C49.2103 28.8212 49.5 29.5207 49.5 30.25V68.75H55V13.75C55 13.0207 55.2897 12.3212 55.8055 11.8055C56.3212 11.2897 57.0207 11 57.75 11H71.5C72.2293 11 72.9288 11.2897 73.4445 11.8055C73.9603 12.3212 74.25 13.0207 74.25 13.75V68.75H77C77.7293 68.75 78.4288 69.0397 78.9445 69.5555C79.4603 70.0712 79.75 70.7707 79.75 71.5Z" fill="white"/>
</svg>
